<svg xmlns="http://www.w3.org/2000/svg" version="1.1" xmlns:xlink="http://www.w3.org/1999/xlink" viewBox="0 0 700 700" style="overflow: hidden; display: block;" width="700" height="700"><defs><linearGradient id="two-9" x1="350" y1="-350" x2="350" y2="350" spreadMethod="pad" gradientUnits="userSpaceOnUse"><stop offset="0%" stop-color="hsl(205, 69%, 60%)" stop-opacity="1"></stop><stop offset="100%" stop-color="hsl(205, 69%, 80%)" stop-opacity="1"></stop></linearGradient></defs><g id="two-0" transform="matrix(1 0 0 1 0 0)" opacity="1"><path transform="matrix(1 0 0 1 350 350)" id="two-783" d="M 173.243613 46.420486 C 162.483756 57.548784 155.220769 74.526735 155.871588 89.992503 C 157.914515 138.539679 253.680903 185.118329 221.700538 221.700538 C 194.902039 252.355232 145.305178 176.352976 104.951767 181.781794 C 86.1373 184.312939 69.657868 199.644662 57.372614 214.117513 C 28.22105 248.460006 45.045724 337.659813 0 337.981069 C -44.293412 338.296959 -29.352558 250.662565 -58.14583 217.00319 C -70.658875 202.375424 -93.701905 198.559818 -106.17214 183.895539 C -118.648856 169.223639 -121.977983 148.083769 -131.146483 131.146482 C -138.690195 117.210722 -142.585722 98.235012 -156.250852 90.211471 C -200.790872 64.059604 -270.635025 113.833939 -312.633717 83.769951 C -336.738353 66.515094 -355.938053 27.579482 -345.069029 0 C -328.53631 -41.950757 -261.248698 -37.188641 -222.065867 -59.50237 C -203.00068 -70.35956 -173.999979 -75.538637 -166.629043 -96.203323 C -154.778546 -129.426617 -223.216399 -173.332118 -198.294684 -198.294684 C -173.416985 -223.213161 -128.060849 -151.583961 -96.332003 -166.851923 C -71.384481 -178.856703 -81.588166 -222.305063 -65.628098 -244.927393 C -49.069963 -268.397442 -28.722937 -302.01204 -0.000001 -302.101238 C 28.636504 -302.190167 37.664877 -250.929752 65.783379 -245.506916 C 98.192139 -239.256676 128.623833 -286.703101 160.423596 -277.861821 C 186.924594 -270.493755 210.635943 -241.350441 214.057926 -214.057927 C 219.774445 -168.465011 145.142282 -133.82548 153.54797 -88.650963 C 156.808822 -71.126236 178.723844 -62.442134 192.949532 -51.700672 C 219.424416 -31.710148 281.271826 -33.107395 279.164464 -0.000001 C 276.740187 38.086232 199.771144 18.984592 173.243613 46.420486 Z " fill="hsl(212, 72%, 59%)" stroke="undefined" stroke-width="1" stroke-opacity="1" fill-opacity="1" visibility="visible" stroke-linecap="butt" stroke-linejoin="miter" stroke-miterlimit="4"></path></g></svg>